<mxfile host="app.diagrams.net" agent="Mozilla/5.0 (Windows NT 10.0; Win64; x64) AppleWebKit/537.36 (KHTML, like Gecko) Chrome/136.0.0.0 Safari/537.36" version="27.0.6">
  <diagram name="第 1 页" id="Ver2i_BrW1_E4wpHf92U">
    <mxGraphModel dx="1426" dy="751" grid="1" gridSize="10" guides="1" tooltips="1" connect="1" arrows="1" fold="1" page="1" pageScale="1" pageWidth="827" pageHeight="1169" math="0" shadow="0">
      <root>
        <mxCell id="0" />
        <mxCell id="1" parent="0" />
        <UserObject label="&lt;div style=&quot;font-size: 14px; font-weight: normal;&quot;&gt;&lt;p&gt;&lt;span style=&quot;background-color: rgb(255, 255, 255);&quot;&gt;&lt;a href=&quot;http://10.2.12.151/Burberry_DEV19/xref/ALPS_150_MP0_VP0002_1555_dvlp/vendor/mediatek/proprietary/hardware/mtkcam-android/&quot; style=&quot;background-color: rgb(255, 255, 255);&quot;&gt;从 &lt;/a&gt;&lt;/span&gt;&lt;span style=&quot;background-color: rgb(255, 255, 255);&quot;&gt;&lt;a href=&quot;http://10.2.12.151/Burberry_DEV19/xref/ALPS_150_MP0_VP0002_1555_dvlp/vendor/mediatek/proprietary/hardware/mtkcam-android/&quot; style=&quot;background-color: rgb(255, 255, 255);&quot;&gt;mtkcam-android&lt;/a&gt;&lt;/span&gt;&lt;span style=&quot;background-color: rgb(255, 255, 255);&quot;&gt;/&lt;/span&gt;&lt;span style=&quot;background-color: rgb(255, 255, 255);&quot;&gt;&lt;a href=&quot;http://10.2.12.151/Burberry_DEV19/xref/ALPS_150_MP0_VP0002_1555_dvlp/vendor/mediatek/proprietary/hardware/mtkcam-android/main/&quot; style=&quot;background-color: rgb(255, 255, 255);&quot;&gt;main&lt;/a&gt;&lt;/span&gt;&lt;span style=&quot;background-color: rgb(255, 255, 255);&quot;&gt;/&lt;/span&gt;&lt;span style=&quot;background-color: rgb(255, 255, 255);&quot;&gt;&lt;a href=&quot;http://10.2.12.151/Burberry_DEV19/xref/ALPS_150_MP0_VP0002_1555_dvlp/vendor/mediatek/proprietary/hardware/mtkcam-android/main/hal/&quot; style=&quot;background-color: rgb(255, 255, 255);&quot;&gt;hal&lt;/a&gt;&lt;/span&gt;&lt;span style=&quot;background-color: rgb(255, 255, 255);&quot;&gt;/&lt;/span&gt;&lt;span style=&quot;background-color: rgb(255, 255, 255);&quot;&gt;&lt;a href=&quot;http://10.2.12.151/Burberry_DEV19/xref/ALPS_150_MP0_VP0002_1555_dvlp/vendor/mediatek/proprietary/hardware/mtkcam-android/main/hal/core/&quot; style=&quot;background-color: rgb(255, 255, 255);&quot;&gt;core&lt;/a&gt;&lt;/span&gt;&lt;span style=&quot;background-color: rgb(255, 255, 255);&quot;&gt;/&lt;/span&gt;&lt;span style=&quot;background-color: rgb(255, 255, 255);&quot;&gt;&lt;a href=&quot;http://10.2.12.151/Burberry_DEV19/xref/ALPS_150_MP0_VP0002_1555_dvlp/vendor/mediatek/proprietary/hardware/mtkcam-android/main/hal/core/device/&quot; style=&quot;background-color: rgb(255, 255, 255);&quot;&gt;device&lt;/a&gt;&lt;/span&gt;&lt;span style=&quot;background-color: rgb(255, 255, 255);&quot;&gt;/&lt;/span&gt;&lt;span style=&quot;background-color: rgb(255, 255, 255);&quot;&gt;&lt;a href=&quot;http://10.2.12.151/Burberry_DEV19/xref/ALPS_150_MP0_VP0002_1555_dvlp/vendor/mediatek/proprietary/hardware/mtkcam-android/main/hal/core/device/3.x/&quot; style=&quot;background-color: rgb(255, 255, 255);&quot;&gt;3.x&lt;/a&gt;&lt;/span&gt;&lt;span style=&quot;background-color: rgb(255, 255, 255);&quot;&gt;/&lt;/span&gt;&lt;span style=&quot;background-color: rgb(255, 255, 255);&quot;&gt;&lt;a href=&quot;http://10.2.12.151/Burberry_DEV19/xref/ALPS_150_MP0_VP0002_1555_dvlp/vendor/mediatek/proprietary/hardware/mtkcam-android/main/hal/core/device/3.x/device/&quot; style=&quot;background-color: rgb(255, 255, 255);&quot;&gt;device&lt;/a&gt;&lt;/span&gt;&lt;span style=&quot;background-color: rgb(255, 255, 255);&quot;&gt;/&lt;/span&gt;&lt;span style=&quot;background-color: rgb(255, 255, 255);&quot;&gt;&lt;a href=&quot;http://10.2.12.151/Burberry_DEV19/xref/ALPS_150_MP0_VP0002_1555_dvlp/vendor/mediatek/proprietary/hardware/mtkcam-android/main/hal/core/device/3.x/device/MtkCameraDeviceSession.cpp&quot; style=&quot;background-color: rgb(255, 255, 255);&quot;&gt;MtkCameraDeviceSession.cpp&lt;/a&gt;&lt;/span&gt;&lt;span style=&quot;background-color: rgb(255, 255, 255);&quot;&gt;&lt;a href=&quot;http://10.2.12.151/Burberry_DEV19/xref/ALPS_150_MP0_VP0002_1555_dvlp/vendor/mediatek/proprietary/hardware/mtkcam-android/main/hal/core/device/3.x/device/MtkCameraDeviceSession.cpp&quot; style=&quot;background-color: rgb(255, 255, 255);&quot;&gt; configureStreams 开始看&lt;/a&gt;&lt;/span&gt;&lt;/p&gt;&lt;/div&gt;&lt;span style=&quot;white-space:pre-wrap;&quot;&gt;&lt;/span&gt;" link="&lt;div style=&quot;font-size:14px;font-weight:normal;color:rgba(31,35,41,1.000000);&quot;&gt;&lt;p&gt;&lt;span style=&quot;color:rgba(32,48,162,1.000000);background-color:rgba(255,255,255,1.000000);&quot;&gt;&lt;a style=&quot;color:rgba(32,48,162,1.000000);background-color:rgba(255,255,255,1.000000);&quot; href=&quot;http://10.2.12.151/Burberry_DEV19/xref/ALPS_150_MP0_VP0002_1555_dvlp/vendor/mediatek/proprietary/hardware/mtkcam-android/&quot;&gt;从 &lt;/a&gt;&lt;/span&gt;&lt;span style=&quot;color:rgba(32,48,162,1.000000);background-color:rgba(255,255,255,1.000000);&quot;&gt;&lt;a style=&quot;color:rgba(32,48,162,1.000000);background-color:rgba(255,255,255,1.000000);&quot; href=&quot;http://10.2.12.151/Burberry_DEV19/xref/ALPS_150_MP0_VP0002_1555_dvlp/vendor/mediatek/proprietary/hardware/mtkcam-android/&quot;&gt;mtkcam-android&lt;/a&gt;&lt;/span&gt;&lt;span style=&quot;color:rgba(0,0,0,1.000000);background-color:rgba(255,255,255,1.000000);&quot;&gt;/&lt;/span&gt;&lt;span style=&quot;color:rgba(32,48,162,1.000000);background-color:rgba(255,255,255,1.000000);&quot;&gt;&lt;a style=&quot;color:rgba(32,48,162,1.000000);background-color:rgba(255,255,255,1.000000);&quot; href=&quot;http://10.2.12.151/Burberry_DEV19/xref/ALPS_150_MP0_VP0002_1555_dvlp/vendor/mediatek/proprietary/hardware/mtkcam-android/main/&quot;&gt;main&lt;/a&gt;&lt;/span&gt;&lt;span style=&quot;color:rgba(0,0,0,1.000000);background-color:rgba(255,255,255,1.000000);&quot;&gt;/&lt;/span&gt;&lt;span style=&quot;color:rgba(32,48,162,1.000000);background-color:rgba(255,255,255,1.000000);&quot;&gt;&lt;a style=&quot;color:rgba(32,48,162,1.000000);background-color:rgba(255,255,255,1.000000);&quot; href=&quot;http://10.2.12.151/Burberry_DEV19/xref/ALPS_150_MP0_VP0002_1555_dvlp/vendor/mediatek/proprietary/hardware/mtkcam-android/main/hal/&quot;&gt;hal&lt;/a&gt;&lt;/span&gt;&lt;span style=&quot;color:rgba(0,0,0,1.000000);background-color:rgba(255,255,255,1.000000);&quot;&gt;/&lt;/span&gt;&lt;span style=&quot;color:rgba(32,48,162,1.000000);background-color:rgba(255,255,255,1.000000);&quot;&gt;&lt;a style=&quot;color:rgba(32,48,162,1.000000);background-color:rgba(255,255,255,1.000000);&quot; href=&quot;http://10.2.12.151/Burberry_DEV19/xref/ALPS_150_MP0_VP0002_1555_dvlp/vendor/mediatek/proprietary/hardware/mtkcam-android/main/hal/core/&quot;&gt;core&lt;/a&gt;&lt;/span&gt;&lt;span style=&quot;color:rgba(0,0,0,1.000000);background-color:rgba(255,255,255,1.000000);&quot;&gt;/&lt;/span&gt;&lt;span style=&quot;color:rgba(32,48,162,1.000000);background-color:rgba(255,255,255,1.000000);&quot;&gt;&lt;a style=&quot;color:rgba(32,48,162,1.000000);background-color:rgba(255,255,255,1.000000);&quot; href=&quot;http://10.2.12.151/Burberry_DEV19/xref/ALPS_150_MP0_VP0002_1555_dvlp/vendor/mediatek/proprietary/hardware/mtkcam-android/main/hal/core/device/&quot;&gt;device&lt;/a&gt;&lt;/span&gt;&lt;span style=&quot;color:rgba(0,0,0,1.000000);background-color:rgba(255,255,255,1.000000);&quot;&gt;/&lt;/span&gt;&lt;span style=&quot;color:rgba(32,48,162,1.000000);background-color:rgba(255,255,255,1.000000);&quot;&gt;&lt;a style=&quot;color:rgba(32,48,162,1.000000);background-color:rgba(255,255,255,1.000000);&quot; href=&quot;http://10.2.12.151/Burberry_DEV19/xref/ALPS_150_MP0_VP0002_1555_dvlp/vendor/mediatek/proprietary/hardware/mtkcam-android/main/hal/core/device/3.x/&quot;&gt;3.x&lt;/a&gt;&lt;/span&gt;&lt;span style=&quot;color:rgba(0,0,0,1.000000);background-color:rgba(255,255,255,1.000000);&quot;&gt;/&lt;/span&gt;&lt;span style=&quot;color:rgba(32,48,162,1.000000);background-color:rgba(255,255,255,1.000000);&quot;&gt;&lt;a style=&quot;color:rgba(32,48,162,1.000000);background-color:rgba(255,255,255,1.000000);&quot; href=&quot;http://10.2.12.151/Burberry_DEV19/xref/ALPS_150_MP0_VP0002_1555_dvlp/vendor/mediatek/proprietary/hardware/mtkcam-android/main/hal/core/device/3.x/device/&quot;&gt;device&lt;/a&gt;&lt;/span&gt;&lt;span style=&quot;color:rgba(0,0,0,1.000000);background-color:rgba(255,255,255,1.000000);&quot;&gt;/&lt;/span&gt;&lt;span style=&quot;color:rgba(32,48,162,1.000000);background-color:rgba(255,255,255,1.000000);&quot;&gt;&lt;a style=&quot;color:rgba(32,48,162,1.000000);background-color:rgba(255,255,255,1.000000);&quot; href=&quot;http://10.2.12.151/Burberry_DEV19/xref/ALPS_150_MP0_VP0002_1555_dvlp/vendor/mediatek/proprietary/hardware/mtkcam-android/main/hal/core/device/3.x/device/MtkCameraDeviceSession.cpp&quot;&gt;MtkCameraDeviceSession.cpp&lt;/a&gt;&lt;/span&gt;&lt;span style=&quot;color:rgba(32,48,162,1.000000);background-color:rgba(255,255,255,1.000000);&quot;&gt;&lt;a style=&quot;color:rgba(32,48,162,1.000000);background-color:rgba(255,255,255,1.000000);&quot; href=&quot;http://10.2.12.151/Burberry_DEV19/xref/ALPS_150_MP0_VP0002_1555_dvlp/vendor/mediatek/proprietary/hardware/mtkcam-android/main/hal/core/device/3.x/device/MtkCameraDeviceSession.cpp&quot;&gt; configureStreams 开始看&lt;/a&gt;&lt;/span&gt;&lt;/p&gt;&lt;/div&gt;&lt;span style=&quot;white-space:pre-wrap;&quot;&gt;&lt;/span&gt;" id="SvlD7Iiz4jd9U657T9eO-2">
          <mxCell style="text;whiteSpace=wrap;html=1;fontColor=default;" vertex="1" parent="1">
            <mxGeometry x="200" y="170" width="770" height="90" as="geometry" />
          </mxCell>
        </UserObject>
      </root>
    </mxGraphModel>
  </diagram>
</mxfile>
